<?xml version="1.0" encoding="UTF-8"?>
<!DOCTYPE svg PUBLIC "-//W3C//DTD SVG 1.1//EN" "http://www.w3.org/Graphics/SVG/1.1/DTD/svg11.dtd">
<!-- Creator: CorelDRAW 2021.5 -->
<svg xmlns="http://www.w3.org/2000/svg" xml:space="preserve" width="300mm" height="424.286mm" version="1.1" style="shape-rendering:geometricPrecision; text-rendering:geometricPrecision; image-rendering:optimizeQuality; fill-rule:evenodd; clip-rule:evenodd"
viewBox="0 0 30000 42428.57"
 xmlns:xlink="http://www.w3.org/1999/xlink"
 xmlns:xodm="http://www.corel.com/coreldraw/odm/2003">
 <defs>
  <style type="text/css">
   <![CDATA[
    .fil2 {fill:none}
    .fil1 {fill:#2B2A29}
    .fil3 {fill:#F1D000}
    .fil0 {fill:#F3F3F3}
   ]]>
  </style>
 </defs>
 <g id="Слой_x0020_1">
  <metadata id="CorelCorpID_0Corel-Layer"/>
  <path class="fil0" d="M4656 20942.67l2359.93 0c129.46,0 235.39,105.93 235.39,235.39l0 1644.83c0,129.47 -105.93,235.39 -235.39,235.39l-301.36 0 270.93 233.06 173.29 163.87 97.77 92.46c121.73,112.16 146.9,219.79 8.47,344.44 -86.09,89.74 -172.19,179.5 -258.3,269.29 -144.3,150.44 -386.31,156.3 -537.8,13.03l-932.71 -829.09 0 324.37 -900.13 0c-118.51,0 -215.47,-96.96 -215.47,-215.46l0 -631.36 0 -127.34 0 -1517.49c0,-129.46 105.91,-235.39 235.39,-235.39zm1106.2 1298.76l119.56 0c59.96,0 108.99,-49.03 108.99,-109l0 -443.03c0,-59.97 -49.03,-109.01 -108.99,-109.01l-119.56 0c-59.96,0 -109,49.04 -109,109.01l0 443.03c0,59.97 49.04,109 109,109z"/>
  <path class="fil1" d="M1264.24 20823.21l424.86 0 1363.57 0 694.37 0c171.79,0 312.33,140.56 312.33,312.34l0 244.29 0 59.99 0 448.56c0,83.06 -67.94,151 -151.01,151l-80.66 0 -61.07 0c-55.59,0 -101.04,45.47 -101.04,101.04l0 0.01c0,55.57 45.46,101.04 101.04,101.04l61.07 0 179.5 0 101.04 0c55.76,0 101.4,45.63 101.4,101.39l0 391.64 0 498.19 0 236.11c0,175.07 -143.24,318.31 -318.3,318.31l-836.94 0 -1.73 0.01 -1788.43 0c-61.47,0 -111.79,-50.3 -111.79,-111.77l0 -2740.37c0,-61.49 50.3,-111.79 111.79,-111.79zm1119.74 996.47l241.7 0c52.11,0 94.74,-42.63 94.74,-94.74l0 -50.37c0,-52.11 -42.63,-94.73 -94.74,-94.73l-241.7 0 0 239.84zm0 1114.4l265.37 0c39.09,0 71.07,-31.99 71.07,-71.07l0 -238.34c0,-39.09 -31.99,-71.07 -71.07,-71.07l-265.37 0 0 380.49zm-116.24 115.51l390.49 0c97.1,0 176.54,-79.44 176.54,-176.54l0 -263.24c0,-97.1 -79.44,-176.54 -176.54,-176.54l-390.49 0 0 616.33zm0.2 -1113.44l380.36 0c103.06,0 187.41,-84.33 187.41,-187.39l0 -99.67c0,-103.06 -84.36,-187.39 -187.41,-187.39l-380.36 0 0 474.44zm-1001.93 -996.17l832.36 0 1609.19 0c121.64,0 221.16,99.51 221.16,221.16l0 758.27 -168.49 0c-117.87,0 -214.3,96.44 -214.3,214.3 0,117.87 96.43,214.3 214.3,214.3l295.73 0c10.81,0 21.46,-0.81 31.86,-2.37l0 851.87 0 239.6c0,124.41 -101.79,226.2 -226.2,226.2l-154.06 0 -2441.54 0 0 -2723.33z"/>
  <path class="fil1" d="M4600.59 20821.69l2463.47 0c163.69,0 297.6,133.37 297.6,296.41l0 1306.17 0 145.84 0 308.7c0,157.56 -128.9,286.46 -286.46,286.46l-0.01 0c-10.2,0 -20.26,-0.56 -30.19,-1.61l218.5 208.11 123.3 117.41c123.23,117.37 128.04,314.21 10.67,437.46 -108.54,113.99 -217.11,227.96 -325.7,341.99 -181.96,191.06 -487.11,198.5 -678.16,16.56l-613.23 -584.01 -133.01 -129.91 0 95.73c0,63.6 -52.03,115.63 -115.64,115.63l-334.5 0 -322.5 0 -274.14 0c-163.69,0 -297.6,-133.37 -297.6,-296.4l0 -2368.11c0,-163.04 133.91,-296.41 297.6,-296.41zm1161.61 1419.74l119.56 0c59.96,0 108.99,-49.03 108.99,-109l0 -443.03c0,-59.97 -49.03,-109.01 -108.99,-109.01l-119.56 0c-59.96,0 -109,49.04 -109,109.01l0 443.03c0,59.97 49.04,109 109,109zm-40.74 123.4l199.26 0c99.93,0 181.67,-67.1 181.67,-149.16l0 -606.24c0,-82.07 -81.74,-149.17 -181.67,-149.17l-199.26 0c-99.93,0 -181.66,67.1 -181.66,149.17l0 606.24c0,82.06 81.73,149.16 181.66,149.16zm-1065.46 -1422.16l2359.93 0c129.46,0 235.39,105.93 235.39,235.39l0 1644.83c0,129.47 -105.93,235.39 -235.39,235.39l-301.36 0 270.93 233.06 173.29 163.87 97.77 92.46c121.73,112.16 146.9,219.79 8.47,344.44 -86.09,89.74 -172.19,179.5 -258.3,269.29 -144.3,150.44 -386.31,156.3 -537.8,13.03l-932.71 -829.09 0 324.37 -900.13 0c-118.51,0 -215.47,-96.96 -215.47,-215.46l0 -631.36 0 -127.34 0 -1517.49c0,-129.46 105.91,-235.39 235.39,-235.39z"/>
  <path class="fil1" d="M26056.09 23786.87l445.61 0 3.03 -7.14c13.59,4.63 28.14,7.14 43.26,7.14l459.66 0c74.31,0 135.1,-60.79 135.1,-135.1l0 -215.77 0 -135.84c0,-59.97 48.24,-109 107.21,-109l117.59 0c58.99,0 107.2,49.03 107.2,109l0 135.84 0 220.2c0,74.31 60.8,135.11 135.11,135.11l459.67 0c11.83,0 23.31,-1.56 34.27,-4.44l478.73 0c145.76,0 265,-119.24 265,-265l0 -2425.03c0,-145.76 -119.24,-265 -265,-265l-2526.44 0c-145.76,0 -265.01,119.24 -265.01,265l0 2425.03c0,145.76 119.26,265 265.01,265zm1189.96 -1545.44l119.56 0c59.96,0 109,-49.03 109,-109l0 -443.03c0,-59.97 -49.04,-109.01 -109,-109.01l-119.56 0c-59.96,0 -109,49.04 -109,109.01l0 443.03c0,59.97 49.04,109 109,109zm-40.74 123.4l199.27 0c99.91,0 181.66,-67.1 181.66,-149.16l0 -606.24c0,-82.07 -81.74,-149.17 -181.66,-149.17l-199.27 0c-99.91,0 -181.66,67.1 -181.66,149.17l0 606.24c0,82.06 81.74,149.16 181.66,149.16zm1298.04 -1424.87c123.4,0 224.36,100.96 224.36,224.34l0 2278.37c0,123.4 -100.96,224.34 -224.36,224.34 -302.94,0 -605.91,0 -908.87,0l0 -390.47c0,-123.77 -101.26,-225.04 -225.03,-225.04l-123.63 0c-123.77,0 -225.04,101.27 -225.04,225.04l0 390.47c-295.11,0 -590.24,0 -885.36,0 -123.4,0 -224.34,-100.94 -224.34,-224.34l0 -2278.37c0,-123.39 100.94,-224.34 224.34,-224.34 789.31,0 1578.61,0 2367.93,0z"/>
  <path class="fil1" d="M11026.19 20823.3c-181.14,0 -329.34,148.2 -329.34,329.34l0 2304.77c0,181.14 148.2,329.34 329.34,329.34 301.67,0 603.34,0 905.01,0 76.93,0 139.31,-62.94 139.87,-139.86l3.56 -495.14 309.61 514.39c39.67,65.89 83.67,120.61 160.6,120.61 311.7,0 623.39,0.13 935.09,0.53 168.31,-14.19 301.51,-158.06 301.51,-329.87l0 -2304.77c0,-171.81 -132.97,-315.16 -301.29,-329.34 -311.53,2.23 -623.71,0 -935.31,0 -76.93,0 -139.87,62.93 -139.87,139.87l0 533.23 -311.7 -542.13c-38.33,-66.69 -85.16,-130.97 -162.07,-130.97l-905.01 0zm-13.03 115.53l933.44 0 578.87 1028.2 0 -1028.2 966.03 0c95.24,1.96 173.2,77.93 173.2,173.19l0 2380.61c0,95.27 -77.94,173.2 -173.2,173.2l-967.5 0 -572.27 -992.03 4.5 992.03 -943.07 0c-95.27,0 -173.2,-77.93 -173.2,-173.2l0 -2380.61c0,-95.26 77.93,-173.19 173.2,-173.19z"/>
  <path class="fil1" d="M14605.93 20822.36l1414.96 0 297.3 0c333.91,0 607.11,274.13 607.11,609.19l0 1741.84c0,335.04 -273.2,609.19 -607.11,609.19l-297.3 0 -1414.96 0 -600.53 0c-85.19,0 -154.9,-69.94 -154.9,-155.43l0 -2649.37c0,-85.49 69.71,-155.41 154.9,-155.41l600.53 0zm500.73 757.37l239.6 0c50.31,0 91.5,41.17 91.5,91.49l0 1170.01c0,50.33 -41.19,91.5 -91.5,91.5l-239.6 0 0 -1353zm-116.76 -115.79l374.56 0c105.03,0 190.96,85.93 190.96,190.96l0 1202.19c0,105.03 -85.93,190.96 -190.96,190.96l-374.56 0 0 -1584.1zm-998.76 -524.46l2308.13 0c281.3,0 511.47,230.16 511.47,511.47l0 1686.6c0,281.3 -230.17,511.44 -511.47,511.44l-2308.13 0 0 -2709.51z"/>
  <path class="fil1" d="M23829.74 23853.33c265.01,-22.87 408.61,-344.41 521.91,-536.97l0 174.3c0,160 130.9,290.9 290.9,290.9 250.47,0 500.93,0 751.4,0 164.87,0 299.77,-134.9 299.77,-299.79l0 -2361.4c0,-164.87 -134.9,-299.77 -299.77,-299.77 -250.47,0 -500.93,0 -751.4,0 -119.17,0 -222.19,72.63 -267.01,175.81l-0.84 -8.17 -705.57 1357.96 -705.59 -1357.96 0 0.04c-46.61,-98.84 -147.31,-167.69 -263.34,-167.69 -252.41,0 -504.83,0 -757.24,0 -164.89,0 -299.79,134.9 -299.79,299.77l0 2361.4c0,164.89 134.91,299.79 299.79,299.79 252.41,0 504.83,0 757.24,0 160,0 294.79,-130.96 290.91,-290.9l-4.21 -174.3c113.29,192.56 256.89,514.1 521.91,536.97l320.93 0zm-1846.97 -188.34l667.69 0c122.56,0 222.81,-100.26 222.81,-222.81l0 -617.54 204.81 387.17c97.66,188.24 221.43,502.61 449.89,524.97l276.64 0c228.46,-22.36 352.21,-336.73 449.89,-524.97l208.81 -381.93 0 612.3c0,122.56 100.27,222.81 222.81,222.81l667.69 0c122.56,0 222.83,-100.26 222.83,-222.81l0 -2278.46c0,-122.56 -100.27,-222.81 -222.83,-222.81l-667.69 0c-95.4,0 -171.37,59.66 -208.9,145.49l-807.53 1541.47 -810.24 -1541.17c-31.89,-84.16 -113.49,-145.79 -209,-145.79l-667.69 0c-122.56,0 -222.83,100.26 -222.83,222.81l0 2278.46c0,122.56 100.27,222.81 222.83,222.81z"/>
  <path class="fil1" d="M19076.99 24656.54l386.43 0c140.07,0 254.64,-114.59 254.64,-254.64 -1.39,-21.27 2.84,-40.6 0.93,-58.46 -5.19,-47.9 4.64,-83.96 42.46,-105.04 79.57,-24.76 156.6,-55.34 230.5,-91.3 51.43,-24.94 53.86,-27.63 103.16,7.9 23.49,16.94 48.93,40.33 77.37,67.39 99.79,98.26 261.84,97.01 360.11,-2.77l292.93 -297.49c98.27,-99.79 97.04,-261.83 -2.77,-360.09 -25.04,-21.63 -43.91,-42.84 -57.66,-65.04 -27.7,-44.74 -33.29,-63.19 -11.66,-107.03 29.51,-59.86 55.56,-121.76 77.76,-185.41 19.1,-54.71 18.04,-78 83.57,-82.96 24.01,-1.81 51.29,-2.04 81.29,-1.94 140.03,2.99 261.6,-54.83 273.33,-194.4l8.7 -345.97c0.41,-33.77 -33.56,-49.51 -48.2,-51.61l-26.2 -0.13c0,-12.19 -9.21,-22.16 -21.57,-22.16l-86.04 0c-11.9,0 -21.57,9.73 -21.57,21.6 -16.04,-0.03 -32.07,-0.06 -48.11,-0.1l0 -0.06c-0.07,-11.81 -9.74,-21.44 -21.57,-21.44l-86.04 0c-11.67,0 -21.26,9.4 -21.56,21.01l-51.81 0.21c-0.23,-11.74 -9.8,-21.23 -21.56,-21.23l-86.04 0c-11.73,0 -21.26,9.39 -21.57,21.07l-41.47 -0.04c-0.29,-11.64 -9.89,-21.03 -21.54,-21.03l-86.06 0c-11.66,0 -21.19,9.31 -21.56,20.94l-52.21 -0.04c-0.34,-11.6 -9.93,-20.9 -21.54,-20.9l-86.06 0c-11.37,0 -20.76,8.94 -21.51,20.14l-34.5 -0.03c-0.74,-11.19 -10.14,-20.11 -21.51,-20.11l-73.67 0c-12.43,0 -21.56,10 -21.56,22.26 -30.77,6.64 -51.19,28 -49.84,68.47 2.03,18.99 3.06,38.64 3.06,63.63 0,488.73 -407.29,884.93 -896.03,884.93 -488.74,0 -896.04,-396.2 -896.04,-884.93 0,-24.99 1.06,-44.64 3.07,-63.63 1.34,-40.47 -19.07,-61.83 -49.84,-68.47 0,-12.26 -9.11,-22.26 -21.56,-22.26l-73.67 0c-11.37,0 -20.77,8.93 -21.53,20.11l-34.49 0.03c-0.76,-11.2 -10.14,-20.14 -21.53,-20.14l-86.04 0c-11.61,0 -21.2,9.3 -21.54,20.9l-52.23 0.04c-0.37,-11.63 -9.89,-20.94 -21.54,-20.94l-86.04 0c-11.67,0 -21.27,9.39 -21.56,21.03l-41.47 0.04c-0.31,-11.69 -9.84,-21.07 -21.56,-21.07l-86.06 0c-11.76,0 -21.33,9.49 -21.56,21.23l-51.81 -0.21c-0.3,-11.61 -9.89,-21.01 -21.57,-21.01l-86.04 0c-11.81,0 -21.47,9.63 -21.56,21.44l0 0.06c-16.03,0.04 -32.09,0.07 -48.11,0.1 0,-11.87 -9.69,-21.6 -21.56,-21.6l-86.06 0c-12.37,0 -21.57,9.97 -21.57,22.16l-26.2 0.13c-14.64,2.1 -48.61,17.84 -48.2,51.61l8.69 345.97c11.74,139.57 133.3,222.56 273.33,219.57 30.03,-0.11 57.3,0.13 81.29,1.94 65.54,4.96 64.49,3.07 83.57,57.79 22.21,63.66 48.24,125.56 77.77,185.41 21.63,43.84 16.04,62.29 -11.66,107.03 -13.74,22.2 -32.63,43.41 -57.67,65.04 -99.79,98.26 -101.03,260.3 -2.76,360.09l292.94 297.49c98.26,99.79 260.3,101.03 360.1,2.77 28.46,-27.06 53.89,-50.44 77.37,-67.39 49.3,-35.53 51.73,-32.84 103.16,-7.9 73.9,35.96 150.91,66.54 230.5,91.3 37.81,21.09 47.64,57.14 42.47,105.04 -1.93,17.86 2.3,37.19 0.9,58.46 0,140.06 114.6,254.64 254.66,254.64zm192.97 -1025.63c-541.9,0 -991.19,-429.5 -991.19,-959.34 0,-25.16 0.79,-49.83 1.9,-73.97 -15.93,0 -31.87,0 -47.79,0 0,-9.3 -7.67,-16.87 -18.14,-16.87 -20.64,0 -41.3,0 -61.94,0 -9.56,0 -17.46,6.77 -18.1,15.26 -9.67,0 -19.34,0.01 -29.01,0.01 -0.61,-8.5 -8.51,-15.27 -18.09,-15.27 -24.13,0 -48.24,0 -72.37,0 -9.77,0 -17.81,7.06 -18.11,15.86 -14.63,0 -29.27,0.01 -43.9,0.01 -0.31,-8.81 -8.33,-15.87 -18.13,-15.87 -24.11,0 -48.24,0 -72.36,0 -9.81,0 -17.89,7.11 -18.13,15.96 -11.63,0 -23.24,0.01 -34.87,0.01 -0.27,-8.84 -8.29,-15.97 -18.13,-15.97 -24.11,0 -48.24,0 -72.36,0 -9.9,0 -17.96,7.19 -18.14,16.09 -14.51,-0.06 -29.04,-0.1 -43.57,-0.16 -0.24,-8.8 -8.31,-15.93 -18.11,-15.93 -24.13,0 -48.26,0 -72.37,0 -9.93,0 -18.06,7.3 -18.13,16.24 0,0.11 -37.03,0.13 -40.47,0.13 0,-9 -8.13,-16.37 -18.13,-16.37 -24.11,0 -48.23,0 -72.36,0 -10.39,0 -18.13,7.56 -18.13,16.8 -22.53,0.03 -45.04,0.06 -67.57,0.09 -17.03,131.77 -2.27,255.6 43.89,371.59 28.57,59.8 79.47,79.39 137.69,85.87 93.41,2.21 176.2,-32.57 217.63,16.27 50.54,84.17 89,176.79 125.84,270.94 31.27,63.39 42,115.87 -10.37,167.29 -25.66,24.69 -51.31,49.36 -76.99,74.03 -63.54,61.8 -79.64,134.6 -32.61,222.06 113.5,136.46 234.77,249.21 362.73,362.73 63.11,44.91 130.31,44.4 201.33,1.47 37.94,-31.14 65.14,-61.19 97.71,-91.79 48.64,-46.51 106.33,-59.6 177.66,-22.2 77.49,40.46 154.96,80.91 232.43,121.4 52.74,24.87 81.51,65.89 79.97,127.31 2.46,46.39 4.93,92.77 7.4,139.16 7.6,80.94 54.84,122.27 121.7,143.97 19.87,10 167.8,0 251.69,0 83.9,0 231.83,10 251.69,0 66.86,-21.7 114.09,-63.03 121.71,-143.97 2.46,-46.39 4.93,-92.77 7.4,-139.16 -1.56,-61.43 27.21,-102.44 79.94,-127.31 77.49,-40.49 154.96,-80.94 232.44,-121.4 71.34,-37.4 129.01,-24.31 177.66,22.2 32.57,30.6 59.77,60.64 97.71,91.79 71.01,42.93 138.21,43.44 201.34,-1.47 127.94,-113.51 249.21,-226.27 362.71,-362.73 47.03,-87.46 30.93,-160.26 -32.61,-222.06 -25.66,-24.67 -51.33,-49.34 -76.99,-74.03 -52.37,-51.41 -41.64,-103.9 -10.36,-167.29 36.83,-94.16 75.3,-186.77 125.83,-270.94 41.43,-48.84 124.21,-14.06 217.64,-16.27 58.2,-6.49 109.1,-26.07 137.69,-85.87 46.14,-115.99 60.9,-239.81 43.87,-371.59 -22.53,-0.03 -45.04,-0.06 -67.56,-0.09 0,-9.24 -7.74,-16.8 -18.14,-16.8 -24.11,0 -48.23,0 -72.36,0 -10,0 -18.14,7.37 -18.14,16.37 -3.43,0 -40.46,-0.01 -40.46,-0.13 -0.06,-8.94 -8.2,-16.24 -18.13,-16.24 -24.13,0 -48.24,0 -72.36,0 -9.83,0 -17.87,7.13 -18.14,15.93 -14.51,0.06 -29.04,0.1 -43.56,0.16 -0.2,-8.9 -8.24,-16.09 -18.14,-16.09 -24.11,0 -48.23,0 -72.34,0 -9.86,0 -17.89,7.13 -18.14,15.97 -11.61,0 -23.26,-0.01 -34.87,-0.01 -0.24,-8.84 -8.31,-15.96 -18.13,-15.96 -24.11,0 -48.23,0 -72.34,0 -9.81,0 -17.81,7.06 -18.14,15.87 -14.63,0 -29.26,-0.01 -43.9,-0.01 -0.29,-8.8 -8.36,-15.86 -18.11,-15.86 -24.13,0 -48.24,0 -72.36,0 -9.57,0 -17.47,6.77 -18.11,15.27 -9.67,0 -19.33,-0.01 -29,-0.01 -0.63,-8.49 -8.53,-15.26 -18.09,-15.26 -20.66,0 -41.31,0 -61.96,0 -10.46,0 -18.14,7.57 -18.14,16.87 -15.91,0 -31.86,0 -47.79,0 1.13,24.14 1.9,48.81 1.9,73.97 0,529.84 -449.26,959.34 -991.16,959.34z"/>
  <path class="fil1" d="M17237.43 21812.2l58.93 0c56.03,-533.17 325.74,-998.8 720.6,-1313.44 89.44,-83.73 263.07,-74.71 257.54,55.06l0 728.93c0,33.47 27.37,60.86 60.84,60.86l52.27 0c33.47,0 60.84,-27.39 60.84,-60.86l0 -928.53c1.49,-69.51 9.34,-107.03 75.13,-129.16 147.49,-49.64 332.76,-97.79 487.89,-117.53 130.01,-16.53 143.69,35.79 143.69,118.64l0 1370.47c0,27.79 22.73,50.5 50.49,50.5l43.4 0c27.76,0 50.49,-22.71 50.49,-50.5 0,-456.17 0,-912.33 0,-1368.5 -2.7,-93 53.79,-129.97 127.61,-127.11 159.17,15.31 312.36,49.31 457.39,99.93 86.83,36.41 111.19,66.19 117.11,167.07l0 914.71c0,33.47 27.37,60.86 60.83,60.86l52.29 0c33.46,0 60.83,-27.39 60.83,-60.86l0 -720.76c23.97,-133.76 157.57,-157.64 265.91,-71.53 391.79,311.29 658.67,776.27 719.5,1321.74l79.67 0c92.83,0 168.77,75.94 168.77,168.77l0 284.26c0,92.83 -75.94,168.77 -168.77,168.77l-4003.24 0c-92.81,0 -168.76,-75.94 -168.76,-168.77l0 -284.26c0,-92.83 75.94,-168.77 168.76,-168.77zm68.9 500.59l3881.83 0c59.46,0 108.09,-48.1 108.09,-106.89l0 -184.49c0,-58.79 -48.63,-106.89 -108.09,-106.89l-133.33 0c0,-577.94 -301.79,-1089.34 -764.73,-1401.64l0 761.3c0,103 -84.29,187.27 -187.29,187.27 -103.01,0 -187.29,-84.27 -187.29,-187.27l0 -955.77c-162.41,-62.17 -336.43,-102.96 -518.16,-118.57l0 1388.59c0,95.07 -77.79,172.83 -172.86,172.83 -95.06,0 -172.84,-77.76 -172.84,-172.83l0 -1387.53c-172.49,15.8 -337.94,54.29 -492.97,112.21l0 961.07c0,103 -84.29,187.27 -187.29,187.27 -103.01,0 -187.29,-84.27 -187.29,-187.27l0 -770.51c-470.83,311.34 -778.7,827.14 -778.7,1410.86l-99.1 0c-59.44,0 -108.06,48.1 -108.06,106.89l0 184.49c0,58.79 48.61,106.89 108.06,106.89z"/>
  <path class="fil1" d="M13382.27 26761.36c-278.71,-10.07 -230.36,-222.39 0,-226.51 3819.74,-86.33 7546.99,-137.04 11366.73,-120.7 567.34,18.1 642.97,444.81 -37.03,453.79 -3782.49,135.89 -7476.13,57.71 -11329.7,-106.57zm85.64 -62.84c-274.21,-5.01 -229.6,-71.49 -2.96,-73.53 3767.64,-92.81 7447.19,-126.81 11186.79,-110.43 558.2,9.01 631.14,275.5 -37.91,279.96 -3657.23,79.94 -7320.16,21.6 -11145.91,-96z"/>
  <path class="fil1" d="M7841.06 23786.87l445.63 0 3.01 -7.14c13.6,4.63 28.16,7.14 43.26,7.14l459.67 0c74.31,0 135.1,-60.79 135.1,-135.1l0 -215.77 0 -135.84c0,-59.97 48.24,-109 107.2,-109l117.6 0c58.97,0 107.2,49.03 107.2,109l0 135.84 0 220.2c0,74.31 60.8,135.11 135.11,135.11l459.66 0c11.84,0 23.31,-1.56 34.27,-4.44l478.73 0c145.76,0 265.01,-119.24 265.01,-265l0 -2425.03c0,-145.76 -119.26,-265 -265.01,-265l-2526.44 0c-145.76,0 -265.01,119.24 -265.01,265l0 2425.03c0,145.76 119.26,265 265.01,265zm1189.97 -1545.44l119.56 0c59.94,0 108.99,-49.03 108.99,-109l0 -443.03c0,-59.97 -49.04,-109.01 -108.99,-109.01l-119.56 0c-59.96,0 -109,49.04 -109,109.01l0 443.03c0,59.97 49.04,109 109,109zm-40.74 123.4l199.26 0c99.93,0 181.66,-67.1 181.66,-149.16l0 -606.24c0,-82.07 -81.73,-149.17 -181.66,-149.17l-199.26 0c-99.93,0 -181.66,67.1 -181.66,149.17l0 606.24c0,82.06 81.73,149.16 181.66,149.16zm1298.04 -1424.87c123.39,0 224.34,100.96 224.34,224.34l0 2278.37c0,123.4 -100.96,224.34 -224.34,224.34 -302.96,0 -605.91,0 -908.89,0l0 -390.47c0,-123.77 -101.26,-225.04 -225.01,-225.04l-123.63 0c-123.77,0 -225.04,101.27 -225.04,225.04l0 390.47c-295.11,0 -590.24,0 -885.36,0 -123.4,0 -224.34,-100.94 -224.34,-224.34l0 -2278.37c0,-123.39 100.94,-224.34 224.34,-224.34 789.3,0 1578.61,0 2367.93,0z"/>
  <path class="fil1" d="M17457.74 15912.13c-1576.21,853.53 -2571.99,1954.06 -3405.07,3123.8 -221.61,336.33 4.41,389.67 195.41,177.66 1126.21,-1224.34 2182.14,-2149.2 3126.77,-2599.73 1206.71,-630.84 2435.26,-664.07 3689.34,0 1025.53,474.69 2120.4,1297.8 3215.6,2395.44 313.11,372.81 523.13,273.57 222.37,-128.4 -1052.87,-1316.07 -2295.53,-2316 -3615.66,-2968.77 -1217.8,-584.13 -2353.11,-538.07 -3428.77,0zm-3014.36 2741.94c-535.63,755.29 -498.21,791.31 111.04,109.56 916.66,-985.9 1893.31,-1835.2 3058.64,-2362.84 1083.83,-486.77 2183.57,-484.41 3299,0 1231.49,602.07 2333.43,1404.5 3265.13,2384.97 499.17,525.3 559.51,472.36 89.07,-74.99 -908.84,-1057.39 -1971.54,-2003.37 -3417.59,-2715.63 -1129.84,-599.46 -2245.66,-529.69 -3351.81,0 -1286.11,747.84 -2256.94,1658.41 -3053.49,2658.93z"/>
  <path class="fil2" d="M2267.74 23049.6l390.49 0c97.1,0 176.54,-79.44 176.54,-176.54l0 -263.24c0,-97.1 -79.44,-176.54 -176.54,-176.54l-390.49 0 0 616.33zm0.2 -1113.44l380.36 0c103.06,0 187.41,-84.33 187.41,-187.39l0 -99.67c0,-103.06 -84.36,-187.39 -187.41,-187.39l-380.36 0 0 474.44zm-1001.93 -996.17l832.36 0 1609.19 0c121.64,0 221.16,99.51 221.16,221.16l0 758.27 -168.49 0c-117.87,0 -214.3,96.44 -214.3,214.3 0,117.87 96.43,214.3 214.3,214.3l295.73 0c10.81,0 21.46,-0.81 31.86,-2.37l0 851.87 0 239.6c0,124.41 -101.79,226.2 -226.2,226.2l-154.06 0 -2441.54 0 0 -2723.33z"/>
  <path class="fil0" d="M8990.29 22364.83l199.26 0c99.93,0 181.66,-67.1 181.66,-149.16l0 -606.24c0,-82.07 -81.73,-149.17 -181.66,-149.17l-199.26 0c-99.93,0 -181.66,67.1 -181.66,149.17l0 606.24c0,82.06 81.73,149.16 181.66,149.16zm1298.04 -1424.87c123.39,0 224.34,100.96 224.34,224.34l0 2278.37c0,123.4 -100.96,224.34 -224.34,224.34 -302.96,0 -605.91,0 -908.89,0l0 -390.47c0,-123.77 -101.26,-225.04 -225.01,-225.04l-123.63 0c-123.77,0 -225.04,101.27 -225.04,225.04l0 390.47c-295.11,0 -590.24,0 -885.36,0 -123.4,0 -224.34,-100.94 -224.34,-224.34l0 -2278.37c0,-123.39 100.94,-224.34 224.34,-224.34 789.3,0 1578.61,0 2367.93,0z"/>
  <path class="fil0" d="M11013.16 20938.83l933.44 0 578.87 1028.2 0 -1028.2 966.03 0c95.24,1.96 173.2,77.93 173.2,173.19l0 2380.61c0,95.27 -77.94,173.2 -173.2,173.2l-967.5 0 -572.27 -992.03 4.5 992.03 -943.07 0c-95.27,0 -173.2,-77.93 -173.2,-173.2l0 -2380.61c0,-95.26 77.93,-173.19 173.2,-173.19z"/>
  <path class="fil0" d="M14989.9 21463.94l374.56 0c105.03,0 190.96,85.93 190.96,190.96l0 1202.19c0,105.03 -85.93,190.96 -190.96,190.96l-374.56 0 0 -1584.1zm-998.76 -524.46l2308.13 0c281.3,0 511.47,230.16 511.47,511.47l0 1686.6c0,281.3 -230.17,511.44 -511.47,511.44l-2308.13 0 0 -2709.51z"/>
  <path class="fil3" d="M14443.39 18654.07c-535.63,755.29 -498.21,791.31 111.04,109.56 916.66,-985.9 1893.31,-1835.2 3058.64,-2362.84 1083.83,-486.77 2183.57,-484.41 3299,0 1231.49,602.07 2333.43,1404.5 3265.13,2384.97 499.17,525.3 559.51,472.36 89.07,-74.99 -908.84,-1057.39 -1971.54,-2003.37 -3417.59,-2715.63 -1129.84,-599.46 -2245.66,-529.69 -3351.81,0 -1286.11,747.84 -2256.94,1658.41 -3053.49,2658.93z"/>
  <path class="fil3" d="M13467.91 26698.51c-274.21,-5.01 -229.6,-71.49 -2.96,-73.53 3767.64,-92.81 7447.19,-126.81 11186.79,-110.43 558.2,9.01 631.14,275.5 -37.91,279.96 -3657.23,79.94 -7320.16,21.6 -11145.91,-96z"/>
  <path class="fil0" d="M21982.77 23664.99l667.69 0c122.56,0 222.81,-100.26 222.81,-222.81l0 -617.54 204.81 387.17c97.66,188.24 221.43,502.61 449.89,524.97l276.64 0c228.46,-22.36 352.21,-336.73 449.89,-524.97l208.81 -381.93 0 612.3c0,122.56 100.27,222.81 222.81,222.81l667.69 0c122.56,0 222.83,-100.26 222.83,-222.81l0 -2278.46c0,-122.56 -100.27,-222.81 -222.83,-222.81l-667.69 0c-95.4,0 -171.37,59.66 -208.9,145.49l-807.53 1541.47 -810.24 -1541.17c-31.89,-84.16 -113.49,-145.79 -209,-145.79l-667.69 0c-122.56,0 -222.83,100.26 -222.83,222.81l0 2278.46c0,122.56 100.27,222.81 222.83,222.81z"/>
  <path class="fil2" d="M27205.3 22364.83l199.27 0c99.91,0 181.66,-67.1 181.66,-149.16l0 -606.24c0,-82.07 -81.74,-149.17 -181.66,-149.17l-199.27 0c-99.91,0 -181.66,67.1 -181.66,149.17l0 606.24c0,82.06 81.74,149.16 181.66,149.16zm1298.04 -1424.87c123.4,0 224.36,100.96 224.36,224.34l0 2278.37c0,123.4 -100.96,224.34 -224.36,224.34 -302.94,0 -605.91,0 -908.87,0l0 -390.47c0,-123.77 -101.26,-225.04 -225.03,-225.04l-123.63 0c-123.77,0 -225.04,101.27 -225.04,225.04l0 390.47c-295.11,0 -590.24,0 -885.36,0 -123.4,0 -224.34,-100.94 -224.34,-224.34l0 -2278.37c0,-123.39 100.94,-224.34 224.34,-224.34 789.31,0 1578.61,0 2367.93,0z"/>
  <path class="fil3" d="M17306.33 22312.79l3881.83 0c59.46,0 108.09,-48.1 108.09,-106.89l0 -184.49c0,-58.79 -48.63,-106.89 -108.09,-106.89l-133.33 0c0,-577.94 -301.79,-1089.34 -764.73,-1401.64l0 761.3c0,103 -84.29,187.27 -187.29,187.27 -103.01,0 -187.29,-84.27 -187.29,-187.27l0 -955.77c-162.41,-62.17 -336.43,-102.96 -518.16,-118.57l0 1388.59c0,95.07 -77.79,172.83 -172.86,172.83 -95.06,0 -172.84,-77.76 -172.84,-172.83l0 -1387.53c-172.49,15.8 -337.94,54.29 -492.97,112.21l0 961.07c0,103 -84.29,187.27 -187.29,187.27 -103.01,0 -187.29,-84.27 -187.29,-187.27l0 -770.51c-470.83,311.34 -778.7,827.14 -778.7,1410.86l-99.1 0c-59.44,0 -108.06,48.1 -108.06,106.89l0 184.49c0,58.79 48.61,106.89 108.06,106.89z"/>
  <path class="fil0" d="M19269.96 23630.91c-541.9,0 -991.19,-429.5 -991.19,-959.34 0,-25.16 0.79,-49.83 1.9,-73.97 -15.93,0 -31.87,0 -47.79,0 0,-9.3 -7.67,-16.87 -18.14,-16.87 -20.64,0 -41.3,0 -61.94,0 -9.56,0 -17.46,6.77 -18.1,15.26 -9.67,0 -19.34,0.01 -29.01,0.01 -0.61,-8.5 -8.51,-15.27 -18.09,-15.27 -24.13,0 -48.24,0 -72.37,0 -9.77,0 -17.81,7.06 -18.11,15.86 -14.63,0 -29.27,0.01 -43.9,0.01 -0.31,-8.81 -8.33,-15.87 -18.13,-15.87 -24.11,0 -48.24,0 -72.36,0 -9.81,0 -17.89,7.11 -18.13,15.96 -11.63,0 -23.24,0.01 -34.87,0.01 -0.27,-8.84 -8.29,-15.97 -18.13,-15.97 -24.11,0 -48.24,0 -72.36,0 -9.9,0 -17.96,7.19 -18.14,16.09 -14.51,-0.06 -29.04,-0.1 -43.57,-0.16 -0.24,-8.8 -8.31,-15.93 -18.11,-15.93 -24.13,0 -48.26,0 -72.37,0 -9.93,0 -18.06,7.3 -18.13,16.24 0,0.11 -37.03,0.13 -40.47,0.13 0,-9 -8.13,-16.37 -18.13,-16.37 -24.11,0 -48.23,0 -72.36,0 -10.39,0 -18.13,7.56 -18.13,16.8 -22.53,0.03 -45.04,0.06 -67.57,0.09 -17.03,131.77 -2.27,255.6 43.89,371.59 28.57,59.8 79.47,79.39 137.69,85.87 93.41,2.21 176.2,-32.57 217.63,16.27 50.54,84.17 89,176.79 125.84,270.94 31.27,63.39 42,115.87 -10.37,167.29 -25.66,24.69 -51.31,49.36 -76.99,74.03 -63.54,61.8 -79.64,134.6 -32.61,222.06 113.5,136.46 234.77,249.21 362.73,362.73 63.11,44.91 130.31,44.4 201.33,1.47 37.94,-31.14 65.14,-61.19 97.71,-91.79 48.64,-46.51 106.33,-59.6 177.66,-22.2 77.49,40.46 154.96,80.91 232.43,121.4 52.74,24.87 81.51,65.89 79.97,127.31 2.46,46.39 4.93,92.77 7.4,139.16 7.6,80.94 54.84,122.27 121.7,143.97 19.87,10 167.8,0 251.69,0 83.9,0 231.83,10 251.69,0 66.86,-21.7 114.09,-63.03 121.71,-143.97 2.46,-46.39 4.93,-92.77 7.4,-139.16 -1.56,-61.43 27.21,-102.44 79.94,-127.31 77.49,-40.49 154.96,-80.94 232.44,-121.4 71.34,-37.4 129.01,-24.31 177.66,22.2 32.57,30.6 59.77,60.64 97.71,91.79 71.01,42.93 138.21,43.44 201.34,-1.47 127.94,-113.51 249.21,-226.27 362.71,-362.73 47.03,-87.46 30.93,-160.26 -32.61,-222.06 -25.66,-24.67 -51.33,-49.34 -76.99,-74.03 -52.37,-51.41 -41.64,-103.9 -10.36,-167.29 36.83,-94.16 75.3,-186.77 125.83,-270.94 41.43,-48.84 124.21,-14.06 217.64,-16.27 58.2,-6.49 109.1,-26.07 137.69,-85.87 46.14,-115.99 60.9,-239.81 43.87,-371.59 -22.53,-0.03 -45.04,-0.06 -67.56,-0.09 0,-9.24 -7.74,-16.8 -18.14,-16.8 -24.11,0 -48.23,0 -72.36,0 -10,0 -18.14,7.37 -18.14,16.37 -3.43,0 -40.46,-0.01 -40.46,-0.13 -0.06,-8.94 -8.2,-16.24 -18.13,-16.24 -24.13,0 -48.24,0 -72.36,0 -9.83,0 -17.87,7.13 -18.14,15.93 -14.51,0.06 -29.04,0.1 -43.56,0.16 -0.2,-8.9 -8.24,-16.09 -18.14,-16.09 -24.11,0 -48.23,0 -72.34,0 -9.86,0 -17.89,7.13 -18.14,15.97 -11.61,0 -23.26,-0.01 -34.87,-0.01 -0.24,-8.84 -8.31,-15.96 -18.13,-15.96 -24.11,0 -48.23,0 -72.34,0 -9.81,0 -17.81,7.06 -18.14,15.87 -14.63,0 -29.26,-0.01 -43.9,-0.01 -0.29,-8.8 -8.36,-15.86 -18.11,-15.86 -24.13,0 -48.24,0 -72.36,0 -9.57,0 -17.47,6.77 -18.11,15.27 -9.67,0 -19.33,-0.01 -29,-0.01 -0.63,-8.49 -8.53,-15.26 -18.09,-15.26 -20.66,0 -41.31,0 -61.96,0 -10.46,0 -18.14,7.57 -18.14,16.87 -15.91,0 -31.86,0 -47.79,0 1.13,24.14 1.9,48.81 1.9,73.97 0,529.84 -449.26,959.34 -991.16,959.34z"/>
  <path class="fil1" d="M1264.24 20823.21l424.86 0 1363.57 0 694.37 0c171.79,0 312.33,140.56 312.33,312.34l0 244.29 0 59.99 0 448.56c0,83.06 -67.94,151 -151.01,151l-80.66 0 -61.07 0c-55.59,0 -101.04,45.47 -101.04,101.04l0 0.01c0,55.57 45.46,101.04 101.04,101.04l61.07 0 179.5 0 101.04 0c55.76,0 101.4,45.63 101.4,101.39l0 391.64 0 498.19 0 236.11c0,175.07 -143.24,318.31 -318.3,318.31l-836.94 0 -1.73 0.01 -1788.43 0c-61.47,0 -111.79,-50.3 -111.79,-111.77l0 -2740.37c0,-61.49 50.3,-111.79 111.79,-111.79zm1119.74 996.47l241.7 0c52.11,0 94.74,-42.63 94.74,-94.74l0 -50.37c0,-52.11 -42.63,-94.73 -94.74,-94.73l-241.7 0 0 239.84zm0 1114.4l265.37 0c39.09,0 71.07,-31.99 71.07,-71.07l0 -238.34c0,-39.09 -31.99,-71.07 -71.07,-71.07l-265.37 0 0 380.49zm-116.24 115.51l390.49 0c97.1,0 176.54,-79.44 176.54,-176.54l0 -263.24c0,-97.1 -79.44,-176.54 -176.54,-176.54l-390.49 0 0 616.33zm0.2 -1113.44l380.36 0c103.06,0 187.41,-84.33 187.41,-187.39l0 -99.67c0,-103.06 -84.36,-187.39 -187.41,-187.39l-380.36 0 0 474.44zm-1001.93 -996.17l832.36 0 1609.19 0c121.64,0 221.16,99.51 221.16,221.16l0 758.27 -168.49 0c-117.87,0 -214.3,96.44 -214.3,214.3 0,117.87 96.43,214.3 214.3,214.3l295.73 0c10.81,0 21.46,-0.81 31.86,-2.37l0 851.87 0 239.6c0,124.41 -101.79,226.2 -226.2,226.2l-154.06 0 -2441.54 0 0 -2723.33z"/>
  <path class="fil1" d="M26056.09 23786.87l445.61 0 3.03 -7.14c13.59,4.63 28.14,7.14 43.26,7.14l459.66 0c74.31,0 135.1,-60.79 135.1,-135.1l0 -215.77 0 -135.84c0,-59.97 48.24,-109 107.21,-109l117.59 0c58.99,0 107.2,49.03 107.2,109l0 135.84 0 220.2c0,74.31 60.8,135.11 135.11,135.11l459.67 0c11.83,0 23.31,-1.56 34.27,-4.44l478.73 0c145.76,0 265,-119.24 265,-265l0 -2425.03c0,-145.76 -119.24,-265 -265,-265l-2526.44 0c-145.76,0 -265.01,119.24 -265.01,265l0 2425.03c0,145.76 119.26,265 265.01,265zm1189.96 -1545.44l119.56 0c59.96,0 109,-49.03 109,-109l0 -443.03c0,-59.97 -49.04,-109.01 -109,-109.01l-119.56 0c-59.96,0 -109,49.04 -109,109.01l0 443.03c0,59.97 49.04,109 109,109zm-40.74 123.4l199.27 0c99.91,0 181.66,-67.1 181.66,-149.16l0 -606.24c0,-82.07 -81.74,-149.17 -181.66,-149.17l-199.27 0c-99.91,0 -181.66,67.1 -181.66,149.17l0 606.24c0,82.06 81.74,149.16 181.66,149.16zm1298.04 -1424.87c123.4,0 224.36,100.96 224.36,224.34l0 2278.37c0,123.4 -100.96,224.34 -224.36,224.34 -302.94,0 -605.91,0 -908.87,0l0 -390.47c0,-123.77 -101.26,-225.04 -225.03,-225.04l-123.63 0c-123.77,0 -225.04,101.27 -225.04,225.04l0 390.47c-295.11,0 -590.24,0 -885.36,0 -123.4,0 -224.34,-100.94 -224.34,-224.34l0 -2278.37c0,-123.39 100.94,-224.34 224.34,-224.34 789.31,0 1578.61,0 2367.93,0z"/>
  <path class="fil0" d="M2267.74 23049.6l390.49 0c97.1,0 176.54,-79.44 176.54,-176.54l0 -263.24c0,-97.1 -79.44,-176.54 -176.54,-176.54l-390.49 0 0 616.33zm0.2 -1113.44l380.36 0c103.06,0 187.41,-84.33 187.41,-187.39l0 -99.67c0,-103.06 -84.36,-187.39 -187.41,-187.39l-380.36 0 0 474.44zm-1001.93 -996.17l832.36 0 1609.19 0c121.64,0 221.16,99.51 221.16,221.16l0 758.27 -168.49 0c-117.87,0 -214.3,96.44 -214.3,214.3 0,117.87 96.43,214.3 214.3,214.3l295.73 0c10.81,0 21.46,-0.81 31.86,-2.37l0 851.87 0 239.6c0,124.41 -101.79,226.2 -226.2,226.2l-154.06 0 -2441.54 0 0 -2723.33z"/>
  <path class="fil0" d="M27205.3 22364.83l199.27 0c99.91,0 181.66,-67.1 181.66,-149.16l0 -606.24c0,-82.07 -81.74,-149.17 -181.66,-149.17l-199.27 0c-99.91,0 -181.66,67.1 -181.66,149.17l0 606.24c0,82.06 81.74,149.16 181.66,149.16zm1298.04 -1424.87c123.4,0 224.36,100.96 224.36,224.34l0 2278.37c0,123.4 -100.96,224.34 -224.36,224.34 -302.94,0 -605.91,0 -908.87,0l0 -390.47c0,-123.77 -101.26,-225.04 -225.03,-225.04l-123.63 0c-123.77,0 -225.04,101.27 -225.04,225.04l0 390.47c-295.11,0 -590.24,0 -885.36,0 -123.4,0 -224.34,-100.94 -224.34,-224.34l0 -2278.37c0,-123.39 100.94,-224.34 224.34,-224.34 789.31,0 1578.61,0 2367.93,0z"/>
 </g>
</svg>
